# xmcd
#
# Track frame offsets:
#	150
#	20927
#	47328
#	68839
#	87675
#	109273
#	125386
#	150775
#	171779
#	191308
#	215326
#	241741
#
# Disc length: 3497 seconds
#
# Revision: 1
# Processed by: cddbd v1.5.2PL0 Copyright (c) Steve Scherf et al.
# Submitted via: EZCDAudioConverter 8.0.2.1
#
DISCID=970da70c
DTITLE=Phi Nhung - Chiều Tây Đô. Xua Đi Huyền Thoại. Tình Bể Dâu
DYEAR=1996
DGENRE=country
TTITLE0=Phi Nhung - Câu lạc bộ làm quen
TTITLE1=Phi Nhung - Tình Bể Dâu
TTITLE2=Phi Nhung - Xua đi huyền thoại
TTITLE3=Phi Nhung - Tình mãi mong chờ
TTITLE4=Phi Nhung - Xa người mình yêu
TTITLE5=Phi Nhung - Mộng mơ xa xôi
TTITLE6=Phi Nhung - Sau rừng
TTITLE7=Phi Nhung - Kiếp sau
TTITLE8=Phi Nhung - Giàn thiên lý đã xa
TTITLE9=Phi Nhung - Hát nữa đi em
TTITLE10=Soundtrack - Câu lạc bộ làm quen
TTITLE11=Soundtrack - Tình Bể Dâu
EXTD=
EXTT0=
EXTT1=
EXTT2=
EXTT3=
EXTT4=
EXTT5=
EXTT6=
EXTT7=
EXTT8=
EXTT9=
EXTT10=
EXTT11=
PLAYORDER=
